<svg width="130" height="36" viewBox="0 0 130 36" fill="none" xmlns="http://www.w3.org/2000/svg">
<g opacity="0.5">
<g clip-path="url(#clip0_2002_745)">
<path d="M8.51789 26.5918L4.78789 30.3218L1.05789 26.5918L0.0878906 27.5618L3.81789 31.2918L0.0878906 35.0218L1.05789 36.0018L4.78789 32.2618L8.51789 36.0018L9.49789 35.0218L5.75789 31.2918L9.49789 27.5618L8.51789 26.5918Z" fill="white"/>
<path d="M56.4984 26.5918L52.7684 30.3218L49.0384 26.5918L48.0684 27.5618L51.7984 31.2918L48.0684 35.0218L49.0384 36.0018L52.7684 32.2618L56.4984 36.0018L57.4684 35.0218L53.7384 31.2918L57.4684 27.5618L56.4984 26.5918Z" fill="#F8C306"/>
<path d="M80.4888 26.5918L76.7588 30.3218L73.0288 26.5918L72.0488 27.5618L75.7888 31.2918L72.0488 35.0218L73.0288 36.0018L76.7588 32.2618L80.4888 36.0018L81.4588 35.0218L77.7288 31.2918L81.4588 27.5618L80.4888 26.5918Z" fill="white"/>
<path d="M104.477 26.5918L100.737 30.3218L97.0071 26.5918L96.0371 27.5618L99.7671 31.2918L96.0371 35.0218L97.0071 36.0018L100.737 32.2618L104.477 36.0018L105.447 35.0218L101.717 31.2918L105.447 27.5618L104.477 26.5918Z" fill="white"/>
<path d="M128.457 26.5918L124.727 30.3218L120.997 26.5918L120.027 27.5618L123.757 31.2918L120.027 35.0218L120.997 36.0018L124.727 32.2618L128.457 36.0018L129.437 35.0218L125.697 31.2918L129.437 27.5618L128.457 26.5918Z" fill="#F8C306"/>
</g>
<g clip-path="url(#clip1_2002_745)">
<path d="M56.4984 0.633789L52.7684 4.36379L49.0384 0.633789L48.0684 1.60379L51.7984 5.33379L48.0684 9.06379L49.0384 10.0438L52.7684 6.30379L56.4984 10.0438L57.4684 9.06379L53.7384 5.33379L57.4684 1.60379L56.4984 0.633789Z" fill="white"/>
<path d="M80.4888 0.633789L76.7588 4.36379L73.0288 0.633789L72.0488 1.60379L75.7888 5.33379L72.0488 9.06379L73.0288 10.0438L76.7588 6.30379L80.4888 10.0438L81.4588 9.06379L77.7288 5.33379L81.4588 1.60379L80.4888 0.633789Z" fill="white"/>
<path d="M104.477 0.633789L100.737 4.36379L97.0071 0.633789L96.0371 1.60379L99.7671 5.33379L96.0371 9.06379L97.0071 10.0438L100.737 6.30379L104.477 10.0438L105.447 9.06379L101.717 5.33379L105.447 1.60379L104.477 0.633789Z" fill="#F8C306"/>
</g>
</g>
<defs>
<clipPath id="clip0_2002_745">
<rect width="129.35" height="9.41" fill="white" transform="translate(0.0878906 26.5918)"/>
</clipPath>
<clipPath id="clip1_2002_745">
<rect width="129.35" height="9.41" fill="white" transform="translate(0.0878906 0.633789)"/>
</clipPath>
</defs>
</svg>
