<svg width="779" height="1081" viewBox="0 0 779 1081" fill="none" xmlns="http://www.w3.org/2000/svg">
<rect width="38.9587" height="6.14807" transform="matrix(-1 0 0 1 778.211 377.35)" fill="#FFD026"/>
<rect width="38.9587" height="6.14807" transform="matrix(-1 0 0 1 197.488 703.314)" fill="#FFD026"/>
<rect width="38.9587" height="6.14807" transform="matrix(-1 0 0 1 297.355 1007.91)" fill="#FFD026"/>
<rect width="20.2972" height="6.14807" transform="matrix(-1 0 0 1 178.826 1074.65)" fill="white" fill-opacity="0.3"/>
<rect width="38.9587" height="6.14807" transform="matrix(-1 0 0 1 71.5371 568.068)" fill="#FFD026"/>
<rect width="14.026" height="13.8335" transform="matrix(-1 0 0 1 368.803 0.802734)" fill="#FFD026"/>
<rect width="14.026" height="13.8335" transform="matrix(-1 0 0 1 28.7363 47.6836)" fill="white" fill-opacity="0.3"/>
<rect width="14.026" height="13.8335" transform="matrix(-1 0 0 1 219.307 23.9824)" fill="white" fill-opacity="0.3"/>
<rect width="14.026" height="13.8335" transform="matrix(-1 0 0 1 414.275 176.139)" fill="white" fill-opacity="0.3"/>
<rect width="14.026" height="13.8335" transform="matrix(-1 0 0 1 447.125 924.412)" fill="white" fill-opacity="0.3"/>
<rect width="7.69694" height="7.59128" transform="matrix(-1 0 0 1 100.777 507.27)" fill="white" fill-opacity="0.3"/>
<rect width="7.69694" height="7.59128" transform="matrix(-1 0 0 1 127.318 507.27)" fill="#FFD026"/>
<rect width="7.69694" height="7.59128" transform="matrix(-1 0 0 1 7.69922 761.488)" fill="#FFD026"/>
<rect width="7.69694" height="7.59128" transform="matrix(-1 0 0 1 103.939 279.225)" fill="white" fill-opacity="0.3"/>
<rect width="7.69694" height="7.59128" transform="matrix(-1 0 0 1 277.875 61.5176)" fill="#FFD026"/>
<rect width="7.69694" height="7.59128" transform="matrix(-1 0 0 1 227.004 168.547)" fill="white" fill-opacity="0.3"/>
<rect width="7.69694" height="7.59128" transform="matrix(-1 0 0 1 447.809 46.3652)" fill="#FFD026"/>
<rect width="7.69694" height="7.59128" transform="matrix(-1 0 0 1 18.5605 381.238)" fill="#FFD026"/>
<rect width="7.69694" height="7.59128" transform="matrix(-1 0 0 1 84.7676 967.295)" fill="#FFD026"/>
<rect width="7.69694" height="7.59128" transform="matrix(-1 0 0 1 127.318 866.209)" fill="white" fill-opacity="0.3"/>
<rect width="7.69694" height="7.59128" transform="matrix(-1 0 0 1 127.318 879.99)" fill="#FFD026"/>
<rect width="7.69694" height="7.59128" transform="matrix(-1 0 0 1 64.4844 981.074)" fill="#FFD026"/>
</svg>
