<svg width="761" height="1039" viewBox="0 0 761 1039" fill="none" xmlns="http://www.w3.org/2000/svg">
<rect x="106.072" y="106.596" width="34.5468" height="7.04928" fill="#FFD026"/>
<rect x="734.771" y="302.143" width="20.0799" height="7.04928" fill="#FFD026"/>
<rect x="0.693359" y="305.67" width="34.5468" height="7.04928" fill="#FFD026"/>
<rect x="673.336" y="607.693" width="34.5468" height="7.04928" fill="#FFD026"/>
<rect x="382.135" y="0.802734" width="12.4376" height="15.8612" fill="#FFD026"/>
<rect x="155.4" y="33.9512" width="12.4376" height="15.8612" fill="white" fill-opacity="0.3"/>
<rect x="513.414" y="48.3848" width="12.4376" height="15.8612" fill="white" fill-opacity="0.3"/>
<rect x="464.889" y="217.801" width="12.4376" height="15.8612" fill="white" fill-opacity="0.3"/>
<rect x="601.809" y="714.947" width="12.4376" height="15.8612" fill="white" fill-opacity="0.3"/>
<rect x="618.52" y="602.51" width="6.8253" height="8.70405" fill="white" fill-opacity="0.3"/>
<rect x="594.982" y="602.51" width="6.8253" height="8.70405" fill="#FFD026"/>
<rect x="727.947" y="726.455" width="6.8253" height="8.70405" fill="#FFD026"/>
<rect x="133.793" y="893.998" width="6.8253" height="8.70405" fill="#FFD026"/>
<rect x="615.717" y="341.041" width="6.8253" height="8.70405" fill="white" fill-opacity="0.3"/>
<rect x="461.477" y="91.4199" width="6.8253" height="8.70405" fill="#FFD026"/>
<rect x="600.467" y="27.0332" width="6.8253" height="8.70405" fill="white" fill-opacity="0.3"/>
<rect x="292.824" y="91.4199" width="6.8253" height="8.70405" fill="white" fill-opacity="0.3"/>
<rect x="133.793" y="909.795" width="6.8253" height="8.70405" fill="#FFD026"/>
<rect x="615.717" y="356.842" width="6.8253" height="8.70405" fill="#FFD026"/>
<rect x="575.018" y="993.914" width="6.8253" height="8.70405" fill="white" fill-opacity="0.3"/>
<rect x="754.176" y="1014.07" width="6.8253" height="8.70405" fill="#FFD026"/>
<rect x="732.648" y="1029.87" width="6.8253" height="8.70405" fill="white" fill-opacity="0.3"/>
<rect x="575.018" y="1009.71" width="6.8253" height="8.70405" fill="#FFD026"/>
<rect x="754.176" y="1029.87" width="6.8253" height="8.70405" fill="#FFD026"/>
</svg>
