<svg width="62" height="98" viewBox="0 0 62 98" fill="none" xmlns="http://www.w3.org/2000/svg">
<g opacity="0.5">
<path d="M3.67077 0.420047L0.925781 3.16504L3.67078 5.91003L6.41577 3.16504L3.67077 0.420047Z" fill="#F8C306"/>
<path d="M22.1708 0.412235L19.4258 3.15723L22.1708 5.90222L24.9158 3.15723L22.1708 0.412235Z" fill="#E3E3E3"/>
<path d="M40.6708 0.412226L37.9258 3.15723L40.6708 5.90222L43.4158 3.15722L40.6708 0.412226Z" fill="#E3E3E3"/>
<path d="M59.1688 0.413203L56.4238 3.1582L59.1688 5.9032L61.9138 3.1582L59.1688 0.413203Z" fill="#F8C306"/>
<path d="M3.67077 13.4513L0.925781 16.1963L3.67078 18.9413L6.41577 16.1963L3.67077 13.4513Z" fill="#E3E3E3"/>
<path d="M22.1708 13.4425L19.4258 16.1875L22.1708 18.9325L24.9158 16.1875L22.1708 13.4425Z" fill="#E3E3E3"/>
<path d="M40.6708 13.4425L37.9258 16.1875L40.6708 18.9325L43.4158 16.1875L40.6708 13.4425Z" fill="#E3E3E3"/>
<path d="M59.1688 13.4435L56.4238 16.1885L59.1688 18.9335L61.9138 16.1885L59.1688 13.4435Z" fill="#E3E3E3"/>
<path d="M3.67077 26.4816L0.925781 29.2266L3.67078 31.9716L6.41577 29.2266L3.67077 26.4816Z" fill="#E3E3E3"/>
<path d="M22.1708 26.4728L19.4258 29.2178L22.1708 31.9628L24.9158 29.2178L22.1708 26.4728Z" fill="#E3E3E3"/>
<path d="M40.6708 26.4728L37.9258 29.2178L40.6708 31.9628L43.4158 29.2178L40.6708 26.4728Z" fill="#E3E3E3"/>
<path d="M59.1688 26.4737L56.4238 29.2188L59.1688 31.9637L61.9138 29.2187L59.1688 26.4737Z" fill="#E3E3E3"/>
<path d="M3.67077 39.5118L0.925781 42.2568L3.67078 45.0018L6.41577 42.2568L3.67077 39.5118Z" fill="#E3E3E3"/>
<path d="M22.1708 39.504L19.4258 42.249L22.1708 44.994L24.9158 42.249L22.1708 39.504Z" fill="#E3E3E3"/>
<path d="M40.6708 39.504L37.9258 42.249L40.6708 44.994L43.4158 42.249L40.6708 39.504Z" fill="#F8C306"/>
<path d="M59.1688 39.505L56.4238 42.25L59.1688 44.995L61.9138 42.25L59.1688 39.505Z" fill="#E3E3E3"/>
<path d="M3.67077 52.5421L0.925781 55.2871L3.67078 58.0321L6.41577 55.2871L3.67077 52.5421Z" fill="#E3E3E3"/>
<path d="M22.1708 52.5343L19.4258 55.2793L22.1708 58.0243L24.9158 55.2793L22.1708 52.5343Z" fill="#E3E3E3"/>
<path d="M40.6708 52.5343L37.9258 55.2793L40.6708 58.0243L43.4158 55.2793L40.6708 52.5343Z" fill="#F8C306"/>
<path d="M59.1688 52.5353L56.4238 55.2803L59.1688 58.0253L61.9138 55.2803L59.1688 52.5353Z" fill="#E3E3E3"/>
<path d="M3.67077 65.5734L0.925781 68.3184L3.67078 71.0634L6.41577 68.3184L3.67077 65.5734Z" fill="#E3E3E3"/>
<path d="M22.1708 65.5646L19.4258 68.3096L22.1708 71.0546L24.9158 68.3096L22.1708 65.5646Z" fill="#E3E3E3"/>
<path d="M40.6708 65.5646L37.9258 68.3096L40.6708 71.0546L43.4158 68.3096L40.6708 65.5646Z" fill="#E3E3E3"/>
<path d="M59.1688 65.5655L56.4238 68.3105L59.1688 71.0555L61.9138 68.3105L59.1688 65.5655Z" fill="#E3E3E3"/>
<path d="M3.67077 78.6036L0.925781 81.3486L3.67078 84.0936L6.41577 81.3486L3.67077 78.6036Z" fill="#E3E3E3"/>
<path d="M22.1708 78.5949L19.4258 81.3398L22.1708 84.0848L24.9158 81.3398L22.1708 78.5949Z" fill="#F8C306"/>
<path d="M40.6708 78.5948L37.9258 81.3398L40.6708 84.0848L43.4158 81.3398L40.6708 78.5948Z" fill="#E3E3E3"/>
<path d="M59.1688 78.5958L56.4238 81.3408L59.1688 84.0858L61.9138 81.3408L59.1688 78.5958Z" fill="#E3E3E3"/>
<path d="M3.67077 91.6339L0.925781 94.3789L3.67078 97.1239L6.41577 94.3789L3.67077 91.6339Z" fill="#E3E3E3"/>
<path d="M22.1708 91.6261L19.4258 94.3711L22.1708 97.1161L24.9158 94.3711L22.1708 91.6261Z" fill="#F8C306"/>
<path d="M40.6708 91.6261L37.9258 94.3711L40.6708 97.1161L43.4158 94.3711L40.6708 91.6261Z" fill="#E3E3E3"/>
<path d="M59.1688 91.6271L56.4238 94.3721L59.1688 97.1171L61.9138 94.3721L59.1688 91.6271Z" fill="#E3E3E3"/>
</g>
</svg>
