<svg width="115" height="28" viewBox="0 0 115 28" fill="none" xmlns="http://www.w3.org/2000/svg">
<g clip-path="url(#clip0_2349_2132)">
<path d="M114.829 5.90723V10.6216H112.814C110.644 10.6216 109.559 11.8027 109.559 14.165V21.8066H104.195V5.90723H109.125L109.559 8.24899C110.034 7.4684 110.623 6.88294 111.325 6.49265C112.028 6.10235 112.937 5.90723 114.053 5.90723H114.829Z" fill="white"/>
<path d="M85.168 13.9189C85.168 12.255 85.5091 10.8068 86.1909 9.57423C86.8934 8.34175 87.8648 7.39679 89.1047 6.73945C90.3658 6.06159 91.8227 5.72266 93.4759 5.72266C95.1705 5.72266 96.6586 6.04103 97.9399 6.67785C99.2419 7.31463 100.254 8.21846 100.978 9.38939C101.701 10.5397 102.063 11.875 102.063 13.3951C102.063 14.0524 102.011 14.6275 101.908 15.1206H90.7478V15.1822C91.0167 17.1542 92.0498 18.1402 93.8478 18.1402C95.3774 18.1402 96.2968 17.5548 96.6067 16.3839H101.877C101.732 17.411 101.329 18.3559 100.668 19.2187C100.027 20.0609 99.1486 20.7388 98.0328 21.2523C96.9377 21.7453 95.6665 21.9918 94.2197 21.9918C92.3394 21.9918 90.717 21.6631 89.353 21.0058C87.9889 20.3485 86.9453 19.4138 86.2217 18.2018C85.5192 16.9899 85.168 15.5622 85.168 13.9189ZM96.7616 11.8544C96.6173 11.0943 96.2761 10.5192 95.7387 10.1289C95.222 9.71804 94.5609 9.51263 93.7549 9.51263C92.9283 9.51263 92.2567 9.71804 91.7399 10.1289C91.2439 10.5192 90.934 11.0943 90.8099 11.8544H96.7616Z" fill="white"/>
<path d="M72.7777 5.90723L76.126 16.476L79.443 5.90723H85.1778L78.2339 23.8403C77.862 24.8263 77.49 25.6068 77.1181 26.182C76.7664 26.7572 76.3117 27.1989 75.7541 27.507C75.2166 27.8151 74.5243 27.9692 73.677 27.9692H68.7789V23.5629H71.29C71.7861 23.5629 72.158 23.4911 72.4058 23.3472C72.6541 23.2035 72.8504 22.9159 72.9947 22.4845L73.2117 21.899L67.0742 5.90723H72.7777Z" fill="white"/>
<path d="M67.6707 17.4315V21.807H64.9735C63.9197 21.807 63.1552 21.5913 62.6798 21.1598C62.2044 20.708 61.9668 20.102 61.9668 19.3419V19.2187C61.3673 20.1431 60.6542 20.8415 59.8276 21.3139C59.001 21.7659 58.0089 21.9918 56.8517 21.9918C55.0537 21.9918 53.5968 21.5913 52.4805 20.7901C51.3854 19.9684 50.8379 18.8078 50.8379 17.3083C50.8379 15.5622 51.5096 14.2167 52.8529 13.2718C54.1963 12.3269 56.1387 11.8544 58.6806 11.8544H61.0367V11.2381C61.0367 10.6835 60.8092 10.2419 60.3549 9.91321C59.9209 9.56399 59.3421 9.38939 58.6185 9.38939C57.9574 9.38939 57.4098 9.53315 56.9758 9.82076C56.5625 10.0878 56.335 10.4575 56.2936 10.93H51.1478C51.2926 9.2661 52.0466 7.98226 53.4106 7.07843C54.7746 6.17455 56.5934 5.72266 58.8668 5.72266C61.2431 5.72266 63.0825 6.21563 64.3845 7.20167C65.6865 8.18766 66.3375 9.63587 66.3375 11.5463V16.4763C66.3375 16.8461 66.4101 17.1029 66.5545 17.2466C66.72 17.3699 66.9784 17.4315 67.3296 17.4315H67.6707ZM61.0367 15.1514H58.7739C57.9882 15.1514 57.3685 15.3157 56.9138 15.6444C56.4591 15.9525 56.2315 16.3736 56.2315 16.9077C56.2315 17.3391 56.3869 17.6883 56.6968 17.9553C57.0273 18.2018 57.4613 18.3251 57.9988 18.3251C58.9081 18.3251 59.6313 18.0478 60.1687 17.4932C60.7268 16.918 61.016 16.1579 61.0367 15.213V15.1514Z" fill="white"/>
<path d="M35.8438 21.8063V0.237305H41.5477V16.9995H49.4836V21.8063H35.8438Z" fill="white"/>
<mask id="mask0_2349_2132" style="mask-type:alpha" maskUnits="userSpaceOnUse" x="23" y="14" width="4" height="8">
<path d="M23.7437 14.5664H26.1895V21.723H23.7437V14.5664Z" fill="black"/>
</mask>
<g mask="url(#mask0_2349_2132)">
<path d="M25.7084 14.5664H19.4683C19.2032 14.5664 18.9883 14.78 18.9883 15.0435V21.2458C18.9883 21.5094 19.2032 21.7229 19.4683 21.7229H25.7084C25.9735 21.7229 26.1884 21.5094 26.1884 21.2458V15.0435C26.1884 14.78 25.9735 14.5664 25.7084 14.5664Z" fill="white" fill-opacity="0.5"/>
</g>
<mask id="mask1_2349_2132" style="mask-type:alpha" maskUnits="userSpaceOnUse" x="23" y="0" width="4" height="8">
<path d="M23.7437 0.237305H26.1895V7.39389H23.7437V0.237305Z" fill="url(#paint0_linear_2349_2132)"/>
</mask>
<g mask="url(#mask1_2349_2132)">
<path d="M25.7084 0.237305H19.4683C19.2032 0.237305 18.9883 0.45091 18.9883 0.714408V6.91672C18.9883 7.18022 19.2032 7.39386 19.4683 7.39386H25.7084C25.9735 7.39386 26.1884 7.18022 26.1884 6.91672V0.714408C26.1884 0.45091 25.9735 0.237305 25.7084 0.237305Z" fill="white" fill-opacity="0.5"/>
</g>
<mask id="mask2_2349_2132" style="mask-type:alpha" maskUnits="userSpaceOnUse" x="27" y="0" width="2" height="8">
<path d="M27.424 0.237305H28.6406V7.39389H27.424V0.237305Z" fill="black"/>
</mask>
<g mask="url(#mask2_2349_2132)">
<path d="M28.1596 0.237305H21.9194C21.6543 0.237305 21.4395 0.45091 21.4395 0.714408V6.91672C21.4395 7.18022 21.6543 7.39386 21.9194 7.39386H28.1596C28.4247 7.39386 28.6395 7.18022 28.6395 6.91672V0.714408C28.6395 0.45091 28.4247 0.237305 28.1596 0.237305Z" fill="white" fill-opacity="0.3"/>
</g>
<mask id="mask3_2349_2132" style="mask-type:alpha" maskUnits="userSpaceOnUse" x="27" y="14" width="2" height="8">
<path d="M27.4279 14.5664H28.6445V21.723H27.4279V14.5664Z" fill="black"/>
</mask>
<g mask="url(#mask3_2349_2132)">
<path d="M28.1635 14.5664H21.9234C21.6583 14.5664 21.4434 14.78 21.4434 15.0435V21.2458C21.4434 21.5094 21.6583 21.7229 21.9234 21.7229H28.1635C28.4286 21.7229 28.6435 21.5094 28.6435 21.2458V15.0435C28.6435 14.78 28.4286 14.5664 28.1635 14.5664Z" fill="white" fill-opacity="0.3"/>
</g>
<path d="M14.8172 7.41113H8.60665C8.34282 7.41113 8.12891 7.62218 8.12891 7.88258V14.0114C8.12891 14.2718 8.34282 14.4829 8.60665 14.4829H14.8172C15.0811 14.4829 15.2949 14.2718 15.2949 14.0114V7.88258C15.2949 7.62218 15.0811 7.41113 14.8172 7.41113Z" fill="white"/>
<path d="M7.62833 0.237305H1.38821C1.12311 0.237305 0.908203 0.45091 0.908203 0.714408V6.91672C0.908203 7.18022 1.12311 7.39386 1.38821 7.39386H7.62833C7.8934 7.39386 8.10832 7.18022 8.10832 6.91672V0.714408C8.10832 0.45091 7.8934 0.237305 7.62833 0.237305Z" fill="white"/>
<path d="M22.0248 0.237305H15.7847C15.5196 0.237305 15.3047 0.45091 15.3047 0.714408V6.91672C15.3047 7.18022 15.5196 7.39386 15.7847 7.39386H22.0248C22.2899 7.39386 22.5048 7.18022 22.5048 6.91672V0.714408C22.5048 0.45091 22.2899 0.237305 22.0248 0.237305Z" fill="white"/>
<path d="M7.62833 14.5498H1.38821C1.12311 14.5498 0.908203 14.7634 0.908203 15.0269V21.2292C0.908203 21.4928 1.12311 21.7063 1.38821 21.7063H7.62833C7.89344 21.7063 8.10832 21.4928 8.10832 21.2292V15.0269C8.10832 14.7634 7.89344 14.5498 7.62833 14.5498Z" fill="white"/>
<path d="M22.0248 14.5498H15.7847C15.5196 14.5498 15.3047 14.7634 15.3047 15.0269V21.2292C15.3047 21.4928 15.5196 21.7063 15.7847 21.7063H22.0248C22.2899 21.7063 22.5048 21.4928 22.5048 21.2292V15.0269C22.5048 14.7634 22.2899 14.5498 22.0248 14.5498Z" fill="white"/>
</g>
<defs>
<linearGradient id="paint0_linear_2349_2132" x1="23.5347" y1="4.22877" x2="26.1635" y2="3.69326" gradientUnits="userSpaceOnUse">
<stop/>
<stop offset="1" stop-color="white"/>
</linearGradient>
<clipPath id="clip0_2349_2132">
<rect width="114" height="28" fill="white" transform="translate(0.857422)"/>
</clipPath>
</defs>
</svg>
